<svg width="18" height="18" viewBox="0 0 18 18" fill="none" xmlns="http://www.w3.org/2000/svg">
<path d="M8.9998 13C7.66089 13 6.49557 14.012 5.89393 15.505C5.60657 16.218 6.01892 17 6.56682 17H11.4328C11.9807 17 12.393 16.218 12.1057 15.505C11.504 14.012 10.3387 13 8.9998 13Z" stroke="#141B34" stroke-width="1.5" stroke-linecap="round"/>
<path d="M14.2002 3.3999H15.162C16.1227 3.3999 16.603 3.3999 16.8536 3.70179C17.1042 4.00368 17 4.45681 16.7916 5.36306L16.479 6.72235C16.0089 8.76676 14.2889 10.287 12.2002 10.5999" stroke="#141B34" stroke-width="1.5" stroke-linecap="round" stroke-linejoin="round"/>
<path d="M3.7998 3.3999H2.83804C1.87734 3.3999 1.397 3.3999 1.1464 3.70179C0.895797 4.00368 0.999999 4.45681 1.2084 5.36306L1.52099 6.72235C1.99112 8.76676 3.7111 10.287 5.7998 10.5999" stroke="#141B34" stroke-width="1.5" stroke-linecap="round" stroke-linejoin="round"/>
<path d="M8.9998 13C11.4164 13 13.4518 9.27033 14.0636 4.19271C14.2328 2.78847 14.3174 2.08634 13.8693 1.54317C13.4211 1 12.6976 1 11.2505 1H6.74907C5.302 1 4.57847 1 4.13034 1.54317C3.68221 2.08634 3.76681 2.78847 3.93601 4.19271C4.54781 9.27033 6.58319 13 8.9998 13Z" stroke="#141B34" stroke-width="1.5" stroke-linecap="round"/>
</svg>
